<svg viewBox="0 0 32 32" xmlns="http://www.w3.org/2000/svg">
  <defs>
    <clipPath id="fl"><rect width="16" height="32"/></clipPath>
    <clipPath id="fr"><rect x="16" width="16" height="32"/></clipPath>
  </defs>
  <rect width="32" height="32" rx="4" fill="#0D0A07"/>
  <!-- Left: organic ember -->
  <g clip-path="url(#fl)">
    <circle cx="16" cy="15" r="11" fill="#3d0e04" stroke="#D4380D" stroke-width="0.8"/>
    <path d="M10 6 Q7.5 1.5 9 0 Q11.5 2.5 11 6Z" fill="#C9A84C"/>
    <circle cx="11.5" cy="13" r="2.5" fill="#C9A84C"/>
    <circle cx="11.5" cy="13.4" r="1.2" fill="#0D0A07"/>
    <path d="M9 20 Q13 24 16 22" fill="none" stroke="#f5edd8" stroke-width="1.2" stroke-linecap="round"/>
  </g>
  <!-- Right: mechanical circuit -->
  <g clip-path="url(#fr)">
    <circle cx="16" cy="15" r="11" fill="#081a14" stroke="#C9A84C" stroke-width="0.8"/>
    <path d="M22 6 L23.5 3.5 L22.5 1 L24 1 L25.5 3.5 L24 6Z" fill="none" stroke="#C9A84C" stroke-width="0.7"/>
    <circle cx="21" cy="13" r="3" fill="#0a1a12" stroke="#C9A84C" stroke-width="1"/>
    <circle cx="21" cy="13" r="1.4" fill="#C9A84C"/>
    <line x1="18" y1="13" x2="19.5" y2="13" stroke="#C9A84C" stroke-width="0.5" opacity="0.7"/>
    <line x1="22.5" y1="13" x2="24" y2="13" stroke="#C9A84C" stroke-width="0.5" opacity="0.7"/>
  </g>
  <!-- Gold seam -->
  <line x1="16" y1="2" x2="16" y2="27" stroke="#C9A84C" stroke-width="0.8"/>
  <circle cx="16" cy="7" r="0.9" fill="#C9A84C"/>
  <circle cx="16" cy="15" r="0.9" fill="#C9A84C"/>
  <circle cx="16" cy="23" r="0.9" fill="#C9A84C"/>
</svg>
